<svg width="214" height="246" viewBox="0 0 214 246" fill="none" xmlns="http://www.w3.org/2000/svg">
<path d="M118.098 245.147C116.527 245.15 114.961 244.976 113.43 244.628C109.142 243.723 105.26 241.46 102.361 238.174C99.4611 234.888 97.6987 230.754 97.3352 226.387C97.2994 225.994 97.2994 225.599 97.3352 225.207L101.556 156.303L68.6326 156.177C54.5764 156.177 40.5202 156.177 34.0285 156.034H20.7413C17.2067 156.04 13.7295 155.141 10.6407 153.422C7.55196 151.704 4.95444 149.223 3.09546 146.217C1.23648 143.211 0.177915 139.779 0.0205397 136.248C-0.136836 132.717 0.612218 129.204 2.19639 126.044L58.9757 11.5021C60.7073 7.99432 63.4002 5.05096 66.7406 3.01507C70.0809 0.979187 73.9312 -0.0653643 77.8425 0.00316822L88.5724 0.182001L167.509 0.968864C168.766 0.988174 169.999 1.32282 171.093 1.94212C172.187 2.56142 173.109 3.44555 173.772 4.51344C174.436 5.58133 174.821 6.79879 174.893 8.0542C174.964 9.30961 174.718 10.5628 174.179 11.6988L135.713 90.6175C135.299 91.5297 134.707 92.3498 133.971 93.0292C133.235 93.7087 132.37 94.2336 131.428 94.5732C130.486 94.9127 129.485 95.0599 128.485 95.006C127.485 94.9521 126.506 94.6982 125.605 94.2594C124.705 93.8206 123.902 93.2057 123.243 92.4512C122.584 91.6966 122.084 90.8176 121.771 89.8662C121.457 88.9148 121.338 87.9103 121.42 86.9121C121.502 85.9138 121.783 84.9421 122.247 84.0544L155.545 15.8298L77.6994 14.9893C76.6177 14.9636 75.5512 15.2479 74.6258 15.8088C73.7005 16.3697 72.9551 17.1837 72.4775 18.1546L15.6267 132.697C15.1899 133.568 14.9835 134.536 15.0271 135.509C15.0707 136.482 15.3628 137.428 15.8756 138.257C16.3884 139.085 17.1048 139.768 17.9566 140.241C18.8083 140.714 19.767 140.961 20.7413 140.959H34.0643C40.5559 140.959 54.5943 140.959 68.6147 141.102L103.237 141.227H109.031C110.643 141.228 112.211 141.751 113.501 142.719C114.79 143.686 115.732 145.045 116.184 146.592L116.613 147.969C116.866 148.827 116.969 149.723 116.917 150.616L112.339 225.368C112.551 226.513 113.107 227.567 113.933 228.388C114.76 229.209 115.817 229.759 116.964 229.963C118.111 230.167 119.293 230.016 120.352 229.531C121.411 229.045 122.297 228.248 122.89 227.245L198 99.8989H173.089C170.791 99.8959 168.533 99.3028 166.53 98.1762C164.527 97.0497 162.848 95.4277 161.652 93.4656C160.457 91.5035 159.785 89.2671 159.702 86.971C159.619 84.6748 160.128 82.3958 161.178 80.3525L180.135 43.674C180.571 42.7737 181.183 41.9698 181.935 41.3099C182.687 40.6499 183.564 40.1473 184.513 39.8316C185.463 39.516 186.466 39.3936 187.463 39.4719C188.461 39.5501 189.433 39.8273 190.321 40.2872C191.21 40.747 191.997 41.3801 192.637 42.1493C193.277 42.9184 193.757 43.8078 194.047 44.7652C194.338 45.7226 194.434 46.7285 194.33 47.7236C194.225 48.7187 193.923 49.6828 193.44 50.5591L175.7 84.9128H198.608C201.174 84.9118 203.694 85.5898 205.913 86.878C208.132 88.1662 209.97 90.0187 211.242 92.2473C212.513 94.4759 213.172 97.0013 213.152 99.567C213.132 102.133 212.433 104.647 211.126 106.855L135.748 234.935C133.966 238.041 131.395 240.62 128.296 242.413C125.196 244.207 121.678 245.149 118.098 245.147Z" fill="#FF3469"/>
</svg>
